<svg width="748" height="625" viewBox="0 0 748 625" fill="none" xmlns="http://www.w3.org/2000/svg">
<path d="M421.199 173.335C400.426 156.351 376.456 143.693 350.655 136.084C324.855 128.475 297.73 126.065 270.83 128.99C243.93 131.916 217.781 140.12 193.876 153.134C169.971 166.149 148.779 183.718 131.509 204.84C114.239 225.962 101.229 250.222 93.2234 276.236C85.2174 302.25 82.3715 329.507 84.8483 356.452C87.3251 383.398 95.076 409.503 107.659 433.277C120.241 457.052 137.409 478.031 158.181 495.015L205.673 436.931C192.402 426.08 181.434 412.677 173.396 397.489C165.357 382.3 160.405 365.622 158.823 348.407C157.241 331.193 159.059 313.779 164.174 297.159C169.288 280.54 177.6 265.041 188.633 251.547C199.666 238.053 213.205 226.828 228.477 218.514C243.749 210.199 260.455 204.958 277.641 203.089C294.827 201.22 312.156 202.76 328.639 207.621C345.122 212.482 360.436 220.569 373.707 231.419L421.199 173.335Z" fill="#F58F95"/>
<path d="M579.442 377.542C604.087 365.767 625.98 348.842 643.394 328.103C660.807 307.363 673.264 283.378 679.783 258.037C686.302 232.697 686.704 206.695 680.958 182.083C675.211 157.472 663.473 134.923 646.669 116.217L598.164 157.322C608.9 169.273 616.399 183.679 620.07 199.402C623.741 215.126 623.485 231.738 619.32 247.927C615.155 264.116 607.196 279.44 596.072 292.689C584.947 305.939 570.96 316.752 555.215 324.275L579.442 377.542Z" fill="#FEBF00"/>
<circle cx="409" cy="383" r="114" fill="#344899"/>
<path d="M412.865 110.983C436.168 96.4007 464.31 91.6727 491.099 97.8392C517.888 104.006 541.13 120.562 555.713 143.865C570.295 167.168 575.023 195.31 568.857 222.099C562.69 248.888 546.134 272.13 522.831 286.713L467.848 198.848L412.865 110.983Z" fill="#01313F"/>
</svg>
