<svg width="189" height="45" viewBox="0 0 189 45" fill="none" xmlns="http://www.w3.org/2000/svg">
<path d="M167.608 44.2006H177.317V22.7964C174.085 22.5545 170.848 22.3262 167.608 22.1072V44.2006Z" fill="#546BC4"/>
<path d="M177.316 9.7358H184.925V0.0292969H160V9.73671H167.608V17.8255C170.848 18.0337 174.083 18.2565 177.316 18.4893V9.7358Z" fill="#344899"/>
<path d="M146.001 44.1751H155.709V21.2691C152.477 21.0847 149.24 20.9149 146.001 20.7533V44.1751Z" fill="#546BC4"/>
<path d="M155.708 0H146V16.5481C149.24 16.6988 152.475 16.8622 155.708 17.0375V0Z" fill="#344899"/>
<path d="M117 38.6663C117 41.7091 119.467 44.176 122.51 44.176H141.907V34.4685H127.606C127.109 34.4685 126.707 34.066 126.707 33.5702V19.8822C123.475 19.7737 120.239 19.6742 117 19.5892V38.6663Z" fill="#546BC4"/>
<path d="M126.707 10.6058C126.707 10.1091 127.11 9.70741 127.606 9.70741H141.907V0H122.51C119.467 0 117 2.46683 117 5.50965V15.4782C120.238 15.5531 123.475 15.6379 126.707 15.7366V10.6058Z" fill="#344899"/>
<path d="M104.791 37.9068C106.742 37.4941 108.321 36.5648 109.561 35.6117C105.521 40.8292 99.1978 44.1888 92.0885 44.1888C90.0796 44.1888 88.1353 43.9177 86.286 43.4147C86.4234 43.3645 86.5617 43.3079 86.6991 43.2412C86.9173 43.1353 88.1323 42.5465 88.8453 41.2619C89.3433 40.3654 89.218 40.3316 89.7836 38.9996C89.9776 38.544 90.2957 37.6941 91.436 37.1883C92.3793 36.7702 93.0974 36.6835 94.3236 36.9136C97.0637 37.4285 97.4607 37.6338 99.6342 38.01C101.648 38.3578 103.265 38.23 104.791 37.9068Z" fill="#546BC4"/>
<path d="M85.8073 42.0415C86.585 41.7522 87.0749 41.2346 87.284 40.9826C87.6344 40.5608 87.7496 40.3709 88.2737 39.1703C88.7828 38.0054 88.9232 37.6147 89.4686 36.866C90.0008 36.1339 90.5806 35.849 90.927 35.7048C92.14 35.1999 93.2874 35.4108 94.3368 35.5751C95.4306 35.7458 95.1145 35.7413 96.7901 36.1047C98.4434 36.4634 99.3302 36.656 100.442 36.7455C101.249 36.8104 102.42 36.8971 103.898 36.6341C104.814 36.4716 106.187 36.2132 107.634 35.2684C108.891 34.4477 109.592 33.5082 110.254 32.6199C111.19 31.3655 111.676 30.2818 112.177 29.1634C112.49 28.4687 113.03 27.2499 113.46 25.623C113.764 24.4736 114.087 22.8376 114.135 20.8181C114.031 21.2107 113.926 21.5696 113.823 21.8872C113.514 22.8568 113.206 23.8017 112.559 24.9539C111.946 26.0467 111.323 26.8007 110.91 27.2955C110.555 27.7191 109.923 28.4705 108.959 29.2886C108.715 29.4948 107.551 30.469 105.754 31.3655C103.889 32.2948 102.323 32.6528 101.893 32.745C100.155 33.1202 98.7616 33.1074 97.3203 33.0938C95.8902 33.08 95.7205 32.9704 94.0681 32.9824C92.4814 32.9942 91.6694 33.0052 90.723 33.28C89.4484 33.6498 88.505 34.2678 87.9728 34.674C87.2446 35.23 86.7365 35.8116 86.3093 36.3C85.6275 37.0806 84.1913 39.0188 83.3823 39.5245C83.0258 39.7473 82.5137 40.0331 81.638 40.233C81.638 40.233 80.6977 40.4631 79.6473 40.3234C79.8503 40.4604 80.1453 40.684 80.3523 40.8146C81.534 41.5732 82.7389 41.9731 83.6065 42.1256C84.8387 42.3428 85.4811 42.163 85.8073 42.0415Z" fill="#253267"/>
<path d="M75.6881 36.6615C76.7839 37.6484 78.5585 39.247 80.5947 38.9658C81.4976 38.8407 82.3349 38.3624 82.4157 38.3158C82.5793 38.2208 83.0459 37.9368 83.8832 37.0705C84.8033 36.1182 84.8054 35.8754 85.6113 34.9889C86.0456 34.5115 86.6698 33.8341 87.6374 33.1859C88.5626 32.5669 89.4302 32.2227 90.017 32.0337C91.3562 31.601 92.4571 31.5755 93.5479 31.5508C93.7317 31.5462 94.3711 31.5654 95.6477 31.6019C97.6616 31.6603 97.7081 31.6777 98.2404 31.6713C99.1645 31.6612 99.9968 31.6521 101.084 31.4622C101.523 31.3856 102.628 31.1709 103.968 30.626C104.236 30.5173 105.168 30.1293 106.296 29.4273C107.701 28.5526 108.608 27.689 108.824 27.4808C109.695 26.6391 110.267 25.8695 110.552 25.4641C111.307 24.3887 111.727 23.4638 111.871 23.1315C112.146 22.5007 112.679 21.1367 112.874 19.3035C113.046 17.6958 112.891 16.3382 112.708 15.3823C112.685 15.2646 112.649 15.1058 112.603 14.9195C112.001 12.5303 110.912 10.2826 109.377 8.35444C105.331 3.27111 99.0908 0.0128508 92.0895 0.0118408C79.9271 0.0118408 70.0947 9.7641 70.0008 21.9264C69.9624 26.9322 71.3552 31.2367 74.1266 34.9589C74.6104 35.5522 75.3104 36.3209 75.6881 36.6615Z" fill="#344899"/>
<path d="M43 44.1878H52.2587V26.7724C52.2587 26.7724 63.2535 28.0797 66.8209 19.4021C58.8641 19.5618 50.9224 19.79 43.001 20.0931V44.1878H43Z" fill="#546BC4"/>
<path d="M67.9258 13.1593C67.9258 7.78101 65.8563 0.0126953 54.8665 0.0126953C46.7349 0.0126953 43.001 0.0126953 43.001 0.0126953V16.2432C51.2466 15.9027 59.5135 15.6397 67.7985 15.4544C67.8803 14.7341 67.9258 13.9718 67.9258 13.1593Z" fill="#344899"/>
<path d="M29 44.1878H38.7081V20.3296C35.469 20.4675 32.233 20.6144 29 20.7769V44.1878Z" fill="#546BC4"/>
<path d="M38.7071 0.0126953H29V16.9735C32.233 16.8019 35.468 16.6403 38.7081 16.4916L38.7071 0.0126953Z" fill="#344899"/>
<path d="M0 31.9049V44.1878H17.9841C23.5209 44.1878 24.4551 37.5506 24.7743 34.4676C25.1227 31.1006 24.8884 28.0194 23.8734 25.6174C23.0634 23.6994 21.7534 22.2158 19.8475 21.3658C13.2179 21.7538 6.60247 22.192 0 22.6786V31.9049Z" fill="#546BC4"/>
<path d="M21.9998 10.8276C21.9685 4.8203 20.1647 0.0126953 14.3864 0.0126953C1.85608 0.0126953 0 0.0126953 0 0.0126953V18.9629C6.67368 18.4498 13.3623 17.9915 20.0626 17.5807C21.1544 16.1191 22.016 13.9718 21.9998 10.8276Z" fill="#344899"/>
</svg>
