<svg width="200" height="44" viewBox="0 0 200 44" fill="none" xmlns="http://www.w3.org/2000/svg">
<g clip-path="url(#clip0)">
<path d="M182.855 43.763H192.467V22.5707C189.267 22.3312 186.063 22.1052 182.855 21.8883V43.763Z" fill="#546BC4"/>
<path d="M192.467 9.63934H200V0.0289307H175.322V9.64025H182.855V17.6489C186.063 17.855 189.266 18.0756 192.467 18.3061V9.63934Z" fill="#344899"/>
<path d="M160.015 43.7377H169.627V21.0585C166.427 20.8759 163.222 20.7078 160.015 20.5478V43.7377Z" fill="#546BC4"/>
<path d="M169.626 0H160.014V16.3843C163.222 16.5335 166.425 16.6953 169.626 16.8688V0Z" fill="#344899"/>
<path d="M129.641 38.2835C129.641 41.2962 132.084 43.7386 135.096 43.7386H154.301V34.1273H140.142C139.65 34.1273 139.252 33.7287 139.252 33.2378V19.6854C136.052 19.5779 132.848 19.4794 129.641 19.3953V38.2835Z" fill="#546BC4"/>
<path d="M139.252 10.5008C139.252 10.009 139.651 9.61132 140.142 9.61132H154.301V0H135.096C132.084 0 129.641 2.44238 129.641 5.45512V15.325C132.847 15.3991 136.052 15.4831 139.252 15.5808V10.5008Z" fill="#344899"/>
<path d="M112.598 37.5314C114.529 37.1228 116.093 36.2027 117.321 35.259C113.321 40.4248 107.06 43.7512 100.021 43.7512C98.0322 43.7512 96.1068 43.4828 94.2755 42.9847C94.412 42.935 94.5494 42.879 94.685 42.813C94.901 42.7081 96.1041 42.1251 96.8101 40.8533C97.3027 39.9656 97.1789 39.9322 97.7393 38.6134C97.9309 38.1623 98.2455 37.3208 99.3754 36.82C100.309 36.406 101.02 36.3202 102.234 36.548C104.947 37.0578 105.34 37.2611 107.492 37.6336C109.486 37.9779 111.087 37.8514 112.598 37.5314Z" fill="#546BC4"/>
<path d="M93.8019 41.6252C94.572 41.3387 95.0574 40.8262 95.2644 40.5767C95.6106 40.1591 95.7254 39.9711 96.2443 38.7824C96.7477 37.629 96.8869 37.2422 97.4266 36.5009C97.9545 35.776 98.5276 35.494 98.871 35.3512C100.072 34.8513 101.208 35.0601 102.247 35.2228C103.33 35.3918 103.017 35.3873 104.676 35.7471C106.313 36.1023 107.191 36.293 108.292 36.3816C109.091 36.4458 110.25 36.5317 111.714 36.2713C112.62 36.1104 113.98 35.8546 115.413 34.9191C116.657 34.1065 117.351 33.1763 118.007 32.2968C118.933 31.0549 119.415 29.9819 119.911 28.8746C120.22 28.1867 120.755 26.98 121.181 25.3692C121.482 24.2312 121.802 22.6114 121.849 20.6119C121.746 21.0006 121.642 21.3559 121.54 21.6704C121.234 22.6304 120.929 23.5659 120.289 24.7067C119.682 25.7887 119.065 26.5353 118.656 27.0252C118.305 27.4446 117.679 28.1885 116.724 28.9985C116.483 29.2027 115.33 30.1672 113.551 31.0549C111.705 31.975 110.154 32.3294 109.728 32.4207C108.008 32.7922 106.628 32.7795 105.201 32.766C103.785 32.7524 103.617 32.6439 101.981 32.6557C100.41 32.6674 99.6059 32.6783 98.6695 32.9504C97.4067 33.3165 96.473 33.9284 95.946 34.3306C95.2246 34.8811 94.7221 35.4569 94.299 35.9405C93.6238 36.7134 92.202 38.6324 91.4011 39.1331C91.0477 39.3537 90.5415 39.6366 89.6737 39.8346C89.6737 39.8346 88.7427 40.0624 87.7032 39.9241C87.9039 40.0597 88.1958 40.2811 88.401 40.4104C89.5707 41.1615 90.7638 41.5574 91.6226 41.7084C92.8428 41.9235 93.4792 41.7455 93.8019 41.6252Z" fill="#253267"/>
<path d="M83.7829 36.2985C84.8676 37.2756 86.6248 38.8584 88.6405 38.58C89.5345 38.4561 90.3643 37.9825 90.4439 37.9364C90.6057 37.8424 91.0685 37.5612 91.8974 36.7034C92.8085 35.7606 92.8103 35.5202 93.6085 34.6425C94.0378 34.1698 94.6561 33.4991 95.6143 32.8573C96.5299 32.2444 97.3886 31.9036 97.9699 31.7165C99.2959 31.2881 100.386 31.2628 101.466 31.2384C101.648 31.2338 102.281 31.2528 103.545 31.289C105.539 31.3468 105.585 31.364 106.112 31.3577C107.027 31.3477 107.851 31.3387 108.927 31.1507C109.362 31.0748 110.456 30.8623 111.783 30.3227C112.048 30.2151 112.971 29.831 114.088 29.1359C115.479 28.2699 116.377 27.4148 116.591 27.2087C117.453 26.3753 118.02 25.6133 118.302 25.212C119.049 24.1472 119.465 23.2315 119.608 22.9025C119.88 22.2779 120.408 20.9274 120.601 19.1124C120.771 17.5206 120.618 16.1764 120.436 15.23C120.414 15.1134 120.378 14.9562 120.332 14.7718C119.736 12.4062 118.658 10.1808 117.138 8.27172C113.132 3.23872 106.954 0.0126532 100.022 0.0117493C87.9798 0.0117493 78.2446 9.66736 78.1515 21.7093C78.1136 26.6655 79.4929 30.9274 82.2372 34.6127C82.7163 35.2002 83.4087 35.9613 83.7829 36.2985Z" fill="#344899"/>
<path d="M45.6802 43.7503H54.8468V26.5073C54.8468 26.5073 65.7326 27.8017 69.2651 19.21C61.3866 19.3681 53.5243 19.5941 45.6811 19.8942V43.7503H45.6802Z" fill="#546BC4"/>
<path d="M70.3588 13.029C70.3588 7.70404 68.3096 0.0126343 57.4292 0.0126343C49.378 0.0126343 45.681 0.0126343 45.681 0.0126343V16.0824C53.8452 15.7453 62.0301 15.4849 70.2332 15.3014C70.3136 14.5882 70.3588 13.8335 70.3588 13.029Z" fill="#344899"/>
<path d="M30.3742 43.7503H39.9855V20.1283C36.7793 20.2648 33.575 20.4103 30.3742 20.5712V43.7503Z" fill="#546BC4"/>
<path d="M39.9846 0.0126343H30.3742V16.8055C33.575 16.6356 36.7784 16.4756 39.9855 16.3283L39.9846 0.0126343Z" fill="#344899"/>
<path d="M0 31.589V43.7503H17.8062C23.2884 43.7503 24.2131 37.1788 24.5286 34.1263C24.8739 30.7927 24.6416 27.742 23.6374 25.3638C22.8347 23.4647 21.5385 21.9958 19.6511 21.1543C13.0869 21.5384 6.53711 21.9723 0 22.4541V31.589Z" fill="#546BC4"/>
<path d="M21.7816 10.7204C21.7509 4.77264 19.9647 0.0126343 14.2439 0.0126343C1.83766 0.0126343 0 0.0126343 0 0.0126343V18.7752C6.60761 18.2672 13.2297 17.8134 19.8644 17.4067C20.9455 15.9595 21.7979 13.8335 21.7816 10.7204Z" fill="#344899"/>
</g>
<defs>
<clipPath id="clip0">
<rect width="200" height="43.763" fill="white"/>
</clipPath>
</defs>
</svg>
